:SAMPLES-PER-SECOND 30
:FULLY-SPECIFIED
:DEGREES
260
root  -72.4132 41.4472 -1.32072 -164.991 -84.5788 161.053
RightUpLeg  -3.06213 -8.19082 -9.57152
RightLeg  6.51631 5.4111 0.823427
RightFoot  1.06255 -0.486323 4.53526
RightToes  -1.33073e-015 0 -3.6325e-017
Spine  6.90474 2.50403 0.0179714
Spine1  -2.46054 2.36711 1.22677
HEad  3.62029 1.9201 0.176193
LeftShoulder1  1.16424 -2.92144 -10.8354
LeftArm  -26.0663 3.49722 -2.24834
LeftForeArm  31.946 -15.0348 -1.20946
LeftHand  -0.244104 0.0205437 5.32207
RightShoulder  0.187943 -1.7669 2.70091
RightArm  -25.3433 -1.87112 7.01457
RightForeArm  -7.08687 4.03123 2.49404
RightHand  -3.4147 10.0725 -25.5472
LeftUpLeg  -0.667482 3.90879 -1.46141
LeftLeg  5.66006 9.06126 -3.86721
LeftFoot  -1.00207 -0.508567 5.68185
LeftToes  -7.82198e-011 2.46994e-011 -7.94165e-012
261
root  -72.557 41.4921 -1.46898 -170.768 -83.4715 167.232
RightUpLeg  -2.78422 -8.25355 -9.21285
RightLeg  5.13847 6.3505 1.34138
RightFoot  1.33799 -0.538731 4.92624
RightToes  -1.33073e-015 0 -3.6325e-017
Spine  6.82193 2.63149 0.866224
Spine1  -2.37932 2.60646 0.663371
HEad  3.00687 2.71812 -0.144429
LeftShoulder1  1.14285 -2.61067 -11.4492
LeftArm  -23.096 3.24202 -2.79184
LeftForeArm  32.2583 -11.7724 -1.21857
LeftHand  -0.244104 0.0205437 5.32207
RightShoulder  0.290739 -1.063 3.94906
RightArm  -24.1307 -1.08204 7.23833
RightForeArm  -1.5761 2.8203 2.34263
RightHand  -3.09947 9.87111 -23.6011
LeftUpLeg  -0.615866 3.86578 -0.904657
LeftLeg  5.40459 10.1089 -3.70017
LeftFoot  -1.25522 -0.441401 5.08471
LeftToes  -7.82198e-011 2.46994e-011 -7.94165e-012
262
root  -72.6794 41.5159 -1.63859 -172.302 -82.8576 168.949
RightUpLeg  -2.56581 -8.62369 -9.16272
RightLeg  4.39937 7.31674 1.97173
RightFoot  1.84791 -0.562344 4.97215
RightToes  -1.33073e-015 0 -3.6325e-017
Spine  7.04673 2.65319 0.92236
Spine1  -2.51513 2.63751 0.618325
HEad  2.75206 3.33113 -0.19761
LeftShoulder1  1.12303 -2.53495 -11.3441
LeftArm  -21.3079 3.1944 -3.41718
LeftForeArm  30.5788 -7.76297 -1.21682
LeftHand  -0.244104 0.0205437 5.32207
RightShoulder  0.402485 -0.41411 5.23601
RightArm  -22.6833 -0.620013 6.73858
RightForeArm  0.83776 1.63361 2.46339
RightHand  -3.14872 10.4995 -23.0383
LeftUpLeg  -0.466198 3.87245 -0.608725
LeftLeg  5.28524 10.6662 -3.52384
LeftFoot  -1.47204 -0.395705 4.6843
LeftToes  -7.82198e-011 2.46994e-011 -7.94165e-012
263
root  -72.8011 41.5355 -1.84109 -171.734 -82.8647 168.429
RightUpLeg  -2.4796 -8.80854 -9.06684
RightLeg  4.64005 7.36548 2.27738
RightFoot  1.92941 -0.489839 4.31775
RightToes  -1.33073e-015 0 -3.6325e-017
Spine  7.15678 2.5496 0.456557
Spine1  -2.26755 2.48422 0.861861
HEad  2.33259 3.54687 0.116427
LeftShoulder1  1.06591 -2.454 -10.5669
LeftArm  -20.4321 3.21046 -4.15432
LeftForeArm  26.5699 -4.3457 -1.15459
LeftHand  -0.244104 0.0205437 5.32207
RightShoulder  0.461013 -0.221419 6.38147
RightArm  -21.8414 -0.517388 6.06509
RightForeArm  -0.937713 0.939916 2.74801
RightHand  -3.41144 11.2074 -23.8651
LeftUpLeg  -0.183784 3.9287 -0.389469
LeftLeg  5.10896 10.5838 -3.47537
LeftFoot  -1.55404 -0.364305 4.36296
LeftToes  -7.82198e-011 2.46994e-011 -7.94165e-012
264
root  -72.9204 41.5525 -2.06215 -171.094 -83.272 167.972
RightUpLeg  -2.4941 -8.63156 -8.71537
RightLeg  5.00293 6.6621 2.25777
RightFoot  1.49538 -0.389654 3.55293
RightToes  -1.33073e-015 0 -3.6325e-017
Spine  7.04518 2.40768 -0.0197848
Spine1  -1.93815 2.25894 1.26184
HEad  1.70561 3.51773 0.386463
LeftShoulder1  1.04978 -2.46982 -10.2153
LeftArm  -20.1745 3.39739 -4.32737
LeftForeArm  24.1464 -2.66331 -1.06345
LeftHand  -0.244104 0.0205437 5.32207
RightShoulder  0.460432 -0.313878 6.80551
RightArm  -22.1708 -1.03148 5.73065
RightForeArm  -2.64392 0.719281 2.65489
RightHand  -3.52619 11.2514 -24.5732
LeftUpLeg  -0.13005 4.02138 -0.0644382
LeftLeg  5.03911 9.95718 -3.44867
LeftFoot  -1.57346 -0.330897 3.98249
LeftToes  -7.82198e-011 2.46994e-011 -7.94165e-012
265
root  -73.0198 41.5683 -2.27445 -170.612 -83.7707 167.859
RightUpLeg  -2.60069 -8.41891 -8.30666
RightLeg  5.00247 5.96626 2.24039
RightFoot  1.19396 -0.339148 3.16167
RightToes  -1.33073e-015 0 -3.6325e-017
Spine  6.8622 2.27452 -0.319734
Spine1  -1.7988 2.03168 1.73616
HEad  1.03514 3.47133 0.327956
LeftShoulder1  1.06489 -2.42699 -10.6351
LeftArm  -20.2271 3.61577 -3.78759
LeftForeArm  23.3249 -2.50415 -1.00655
LeftHand  -0.244104 0.0205437 5.32207
RightShoulder  0.419047 -0.54968 6.52772
RightArm  -23.3243 -1.64322 5.66502
RightForeArm  -1.41676 0.369757 2.03941
RightHand  -3.31496 10.4802 -24.2276
LeftUpLeg  -0.381968 4.04414 0.250708
LeftLeg  5.0614 9.30332 -3.32302
LeftFoot  -1.56414 -0.298529 3.6001
LeftToes  -7.82198e-011 2.46994e-011 -7.94165e-012
266
root  -73.0936 41.5856 -2.46225 -169.561 -84.1525 167.131
RightUpLeg  -2.72582 -8.34948 -8.04237
RightLeg  4.97583 5.49223 2.29735
RightFoot  1.16506 -0.317424 2.96814
RightToes  -1.33073e-015 0 -3.6325e-017
Spine  6.92714 2.16102 -0.280529
Spine1  -2.04242 1.92687 1.71385
HEad  0.715759 3.33298 0.254418
LeftShoulder1  1.07401 -2.46926 -10.6664
LeftArm  -20.1161 4.02607 -3.29355
LeftForeArm  24.2502 -3.04395 -1.03011
LeftHand  -0.244104 0.0205437 5.32207
RightShoulder  0.405867 -0.616132 6.38153
RightArm  -24.0924 -2.11988 5.22087
RightForeArm  0.0222399 -0.350637 1.47194
RightHand  -2.98325 9.39673 -23.4398
LeftUpLeg  -0.592802 4.00464 0.435846
LeftLeg  4.98459 8.9715 -3.17986
LeftFoot  -1.50836 -0.276977 3.32531
LeftToes  -7.82198e-011 2.46994e-011 -7.94165e-012
267
root  -73.1476 41.5986 -2.6324 -168.196 -84.4626 165.888
RightUpLeg  -2.76565 -8.29962 -7.85248
RightLeg  5.19663 4.98815 2.30754
RightFoot  0.99317 -0.279523 2.64721
RightToes  -1.33073e-015 0 -3.6325e-017
Spine  7.2119 2.05699 0.0394346
Spine1  -2.26813 1.91477 1.27373
HEad  0.689188 3.11489 0.187437
LeftShoulder1  1.05773 -2.5478 -10.1109
LeftArm  -19.6868 4.40702 -3.24476
LeftForeArm  25.077 -3.39285 -1.1713
LeftHand  -0.244104 0.0205437 5.32207
RightShoulder  0.407257 -0.615908 6.43049
RightArm  -24.0911 -2.49526 4.57177
RightForeArm  -1.92855 -0.830238 1.45582
RightHand  -2.81173 8.54864 -23.4336
LeftUpLeg  -0.582438 4.03294 0.609944
LeftLeg  4.84903 8.6071 -3.14494
LeftFoot  -1.427 -0.260884 3.10691
LeftToes  -7.82198e-011 2.46994e-011 -7.94165e-012
268
root  -73.1793 41.5996 -2.80398 -167.248 -84.9498 164.923
RightUpLeg  -2.71321 -8.22265 -7.61334
RightLeg  5.53464 4.34426 2.32142
RightFoot  0.602463 -0.23336 2.26922
RightToes  -1.33073e-015 0 -3.6325e-017
Spine  7.46769 1.93112 0.226774
Spine1  -2.04084 1.78891 1.33481
HEad  0.605249 3.16521 -0.332236
LeftShoulder1  1.05428 -2.51344 -10.1583
LeftArm  -19.1882 4.42352 -3.18729
LeftForeArm  23.6981 -3.32227 -1.4135
LeftHand  -0.244104 0.0205437 5.32207
RightShoulder  0.373326 -0.82274 6.23572
RightArm  -23.9929 -2.64755 4.22705
RightForeArm  -6.11752 -0.558642 1.79084
RightHand  -2.89723 8.28187 -24.5566
LeftUpLeg  -0.573351 4.19411 0.912748
LeftLeg  4.93685 7.71492 -3.13617
LeftFoot  -1.38312 -0.235089 2.79404
LeftToes  -7.82198e-011 2.46994e-011 -7.94165e-012
269
root  -73.1773 41.5888 -2.98861 -166.247 -85.751 163.891
RightUpLeg  -2.66953 -8.20102 -7.31967
RightLeg  5.88724 3.5387 2.42049
RightFoot  0.268217 -0.208305 2.06662
RightToes  -1.33073e-015 0 -3.6325e-017
Spine  7.77788 1.6745 0.136684
Spine1  -1.77573 1.44082 1.8679
HEad  0.44573 4.04271 -1.20588
LeftShoulder1  1.04237 -2.38951 -10.3388
LeftArm  -19.5631 4.62373 -3.39975
LeftForeArm  23.1223 -3.54008 -1.29694
LeftHand  -0.244104 0.0205437 5.32207
RightShoulder  0.36924 -0.911889 6.59172
RightArm  -24.2259 -2.47401 3.83028
RightForeArm  -9.16031 0.204888 2.03287
RightHand  -3.23583 8.78753 -26.3577
LeftUpLeg  -0.849573 4.48802 1.28083
LeftLeg  5.4519 6.41354 -2.95886
LeftFoot  -1.43381 -0.19952 2.40145
LeftToes  -7.82198e-011 2.46994e-011 -7.94165e-012
270
root  -73.1369 41.57 -3.18126 -164.273 -86.6963 161.989
RightUpLeg  -2.8053 -8.1871 -6.96019
RightLeg  6.30114 2.44526 2.48729
RightFoot  0.0326925 -0.196558 1.97504
RightToes  -1.33073e-015 0 -3.6325e-017
Spine  8.22069 1.3185 -0.065752
Spine1  -1.77952 0.964058 2.56405
HEad  0.258939 6.03867 -2.35227
LeftShoulder1  1.00655 -2.19621 -10.3003
LeftArm  -19.9127 5.49022 -4.40221
LeftForeArm  23.1942 -4.35632 -1.19227
LeftHand  -0.244104 0.0205437 5.32207
RightShoulder  0.384949 -0.89708 7.18174
RightArm  -25.0423 -2.04254 4.33593
RightForeArm  -9.89713 1.09533 1.99335
RightHand  -3.89807 10.3558 -28.4723
LeftUpLeg  -1.51368 4.89585 1.57113
LeftLeg  6.32997 5.09601 -2.57181
LeftFoot  -1.5519 -0.169403 2.08776
LeftToes  -7.82198e-011 2.46994e-011 -7.94165e-012
271
root  -73.0579 41.5488 -3.37401 -161.176 -87.5234 159.151
RightUpLeg  -3.21888 -8.07318 -6.51641
RightLeg  6.67478 1.15829 2.43326
RightFoot  -0.209717 -0.175684 1.78708
RightToes  -1.33073e-015 0 -3.6325e-017
Spine  8.66967 0.981078 0.138051
Spine1  -1.85123 0.617859 2.70476
HEad  0.0116198 8.94799 -3.63581
LeftShoulder1  0.938286 -1.85208 -10.1395
LeftArm  -20.1396 6.85823 -6.50726
LeftForeArm  24.1928 -5.82361 -1.19826
LeftHand  -0.244104 0.0205437 5.32207
RightShoulder  0.410031 -0.828965 7.80846
RightArm  -26.0774 -1.78062 6.41271
RightForeArm  -9.44738 2.25414 1.91214
RightHand  -4.88958 12.9827 -30.5039
LeftUpLeg  -2.45666 5.20394 1.72969
LeftLeg  7.20693 3.89617 -2.10691
LeftFoot  -1.56776 -0.145499 1.81306
LeftToes  -7.82198e-011 2.46994e-011 -7.94165e-012
